<svg width="162.06" height="163.34" version="1.1" viewBox="0 0 162.06 163.34" xml:space="preserve"
	xmlns="http://www.w3.org/2000/svg">
	<g transform="translate(-877.65 -451.86)">
		<path fill="#ffffff"
			d="m959.14 533.06c0.5-0.08 1-0.15 1.5-0.26 8.97-1.83 16.21 1.06 21.69 8.23 4.81 6.3 5.92 13.45 4.11 21.12-0.36 1.54-1.05 2.82-2.28 3.74-1.81 1.37-3.62 2.78-5.59 3.89-5.11 2.88-10.61 4.68-16.45 5.41-0.22 0.03-0.46 0-1 0 0.56-0.58 0.94-1 1.35-1.38 3.62-3.42 6.6-7.26 8.26-12.03 3.54-10.17-0.17-20.75-9.33-26.43-0.58-0.36-1.23-0.62-1.91-0.95-0.45 0.86 0.06 1.32 0.33 1.79 1.88 3.3 2.92 6.84 2.76 10.65-0.35 8.49-4.51 14.73-11.59 19.13-3.47 2.16-7.33 3.14-11.4 3.54-2.6 0.26-4.55-1.04-6.38-2.43-5.82-4.42-10.3-9.98-13.42-16.61-0.1-0.21-0.16-0.44-0.35-1 0.67 0.3 1.13 0.47 1.55 0.7 3.28 1.78 6.7 3.18 10.4 3.86 11.9 2.17 23.05-4.83 25.92-16.33 0.23-0.91 0.27-1.87 0.44-3.17-0.55 0.41-0.85 0.55-1.05 0.79-7.63 9.42-21.23 9.97-30.79 2.32-3.49-2.8-6-6.31-7.72-10.43-0.66-1.58-0.66-3.13-0.3-4.74 0.74-3.31 2.14-6.35 3.81-9.27 2.24-3.92 4.91-7.52 8.24-10.6 0.25-0.23 0.52-0.45 1.04-0.9-0.09 0.75-0.13 1.19-0.21 1.62-0.91 4.82-1.14 9.63 0.2 14.42 3.72 13.32 15.72 17.62 24.86 16.18 0.34-0.05 0.67-0.17 1.38-0.37-0.74-0.38-1.17-0.64-1.63-0.84-7.23-3.1-11.43-8.68-12.58-16.3-1.16-7.72 1.21-14.51 6.4-20.39 2.77-3.14 6.03-4.4 10.17-4.12 6.49 0.45 12.62 2.05 18.42 4.97 0.53 0.27 1.05 0.58 1.56 0.89 0.07 0.04 0.08 0.19 0.15 0.36-1.94 0.34-3.88 0.61-5.78 1.04-5.14 1.16-9.62 3.54-13.34 7.35-6.97 7.15-7.3 17.78-3.48 25.21 0.15 0.29 0.37 0.55 0.78 1.15 0.09-0.82 0.15-1.26 0.18-1.7 0.6-8.42 6.23-15.64 14.23-18.36 7.52-2.56 14.61-1.62 21.42 2.34 1.64 0.96 2.68 2.3 3.4 4.01 1.44 3.41 2.09 7 2.4 10.65 0.37 4.31 0.25 8.62-0.66 12.88-0.03 0.16-0.13 0.3-0.3 0.68-0.32-0.6-0.57-1.03-0.78-1.48-2.03-4.26-4.56-8.15-8.28-11.17-9.38-7.62-21.07-6.59-29.39 0.78-0.43 0.38-0.78 0.84-1.16 1.27 0.08 0.09 0.14 0.19 0.2 0.29z" />
		<path fill="#ffffff"
			d="m988.95 487.18c1.86-5.11 4.98-9.01 9.21-12.07 7.63 9.44 5.07 25.19-5.95 29.36-1.15-1.03-1.92-2.39-2.52-3.8-0.61-1.42-1.21-2.93-1.35-4.44-0.14-1.57-0.84-2.46-2.06-3.28-6.59-4.41-13.78-7.24-21.65-8.19-23.61-2.85-46.01 11.26-52.87 34.51-4.84 16.4-1.76 31.6 8.95 44.99 7.99 9.98 18.55 15.84 31.18 17.56 25.61 3.48 48.97-13.08 54.55-38.1 1.92-8.62 1.35-17.13-1.31-25.54-0.34-1.08-0.94-1.81-1.85-2.51-1.94-1.49-3.79-3.12-5.55-4.81-1.11-1.07-1.98-2.38-2.28-3.89 5.22-2.91 8.17-7.54 10.24-12.82 0.36-0.9 0.72-1.63 1.61-1.99 5.22-2.09 10.46-2.37 15.73-0.2 0.42 0.17 0.78 0.49 1.19 0.76-0.25 1.48-1.43 2.26-2.26 3.46 2.4 0.79 4.35 2.12 6.16 3.71 2.04 1.8 3.76 3.86 5.13 6.21 0.3 0.52 0.57 1.05 0.79 1.61 0.72 1.82 0.6 2.27-1.12 3.18-4.44 2.33-9.15 3.85-14.15 4.39-0.23 0.02-0.46 0.07-0.8 0.13 0 0.86 0.05 1.69-0.01 2.5-0.1 1.21-0.38 1.62-1.59 1.82-1.28 0.21-2.6 0.2-4.15 0.3 0.08 0.57 0.13 1.18 0.25 1.78 1.7 8.23 1.66 16.47-0.52 24.58-5.09 18.9-16.92 31.79-35.3 38.47-7.99 2.9-16.29 3.68-24.79 2.51-15.96-2.21-28.58-9.89-37.91-22.94-5.4-7.55-8.56-16.03-9.52-25.29-1.57-15.23 2.38-28.91 12.08-40.74 9.48-11.56 21.79-18.16 36.69-19.75 12.34-1.32 23.8 1.39 34.39 7.83 0.36 0.21 0.75 0.38 1.36 0.7z" />
	</g>
</svg>
